<?xml version="1.0" encoding="iso-8859-1"?>
<!-- Generator: Adobe Illustrator 19.0.0, SVG Export Plug-In . SVG Version: 6.00 Build 0)  -->
<svg version="1.1" id="Capa_1" xmlns="http://www.w3.org/2000/svg" xmlns:xlink="http://www.w3.org/1999/xlink" x="0px" y="0px"
	 viewBox="0 0 490 490" style="enable-background:new 0 0 490 490;" xml:space="preserve">
<path id="XMLID_1171_" d="M260,105v-2c0-8.284,6.716-15,15-15s15,6.716,15,15v2c0,8.284-6.716,15-15,15S260,113.284,260,105z
	 M220,155c0,8.284,6.716,15,15,15h20c8.284,0,15-6.716,15-15s-6.716-15-15-15h-20C226.716,140,220,146.716,220,155z M490,405
	c0,46.869-38.131,85-85,85c-22.15,0-42.348-8.516-57.492-22.445C315.555,482.266,280.35,490,245,490s-70.555-7.734-102.508-22.445
	C127.348,481.484,107.15,490,85,490c-46.869,0-85-38.131-85-85c0-22.116,8.491-42.287,22.383-57.424
	C3.16,327.922-4.665,298.818,2.786,270.965c0.057-0.215,0.12-0.429,0.187-0.641l5.566-17.627
	c14.385-45.555,43.153-84.426,81.483-110.375C90.007,141.549,90,140.776,90,140c0-27.004,8.92-52.759,25.344-73.767
	C111.877,59.755,110,52.456,110,45c0-24.813,20.187-45,45-45c15.973,0,30.203,8.241,38.216,21.171C198.764,20.393,204.375,20,210,20
	h70c5.625,0,11.236,0.393,16.784,1.171C304.797,8.241,319.027,0,335,0c24.813,0,45,20.187,45,45c0,7.456-1.877,14.755-5.344,21.233
	C391.08,87.241,400,112.996,400,140c0,0.776-0.007,1.549-0.022,2.322c38.331,25.95,67.099,64.82,81.483,110.375l5.566,17.627
	c0.067,0.212,0.129,0.425,0.187,0.64c7.452,27.854-0.374,56.958-19.597,76.612C481.509,362.713,490,382.884,490,405z M120,140
	c0,2.793,0.127,5.56,0.377,8.301c0.038,0.295,0.066,0.591,0.085,0.887c2.951,29.133,19.813,54.856,45.257,69.195
	C177.533,206.525,193.169,200,209.804,200c0.001,0,0,0,0,0c12.742,0,24.897,3.828,35.196,10.948
	C255.304,203.826,267.457,200,280.196,200c16.636,0,32.271,6.524,44.084,18.383c25.445-14.339,42.307-40.063,45.257-69.195
	c0.02-0.296,0.048-0.592,0.085-0.887c0.25-2.741,0.377-5.508,0.377-8.301c0-23.492-9.002-45.725-25.348-62.602
	c-2.804-2.895-4.325-6.797-4.22-10.825c0.105-4.029,1.827-7.847,4.777-10.592C348.298,53.106,350,49.207,350,45
	c0-8.271-6.729-15-15-15c-7.015,0-13.021,4.764-14.604,11.586c-0.911,3.924-3.362,7.316-6.801,9.414
	c-3.439,2.097-7.578,2.724-11.483,1.738C294.917,50.921,287.478,50,280,50h-70c-7.478,0-14.917,0.921-22.113,2.738
	c-3.905,0.985-8.043,0.359-11.483-1.738c-3.439-2.098-5.89-5.49-6.801-9.414C168.021,34.764,162.015,30,155,30
	c-8.271,0-15,6.729-15,15c0,4.207,1.702,8.106,4.792,10.981c2.95,2.745,4.672,6.563,4.777,10.592
	c0.104,4.028-1.417,7.931-4.22,10.825C129.002,94.275,120,116.508,120,140z M307.712,245.447c-0.128-0.19-0.253-0.385-0.373-0.582
	c-1.185-1.807-2.56-3.523-4.124-5.117c-6.165-6.286-14.34-9.748-23.02-9.748s-16.855,3.462-23.021,9.748
	c-0.331,0.339-0.663,0.695-0.987,1.056c-2.79,3.103-6.744,4.97-10.916,4.97c-5.814,0-9.467-2.754-11.456-4.964
	c-0.327-0.362-0.66-0.722-1.004-1.073c-6.154-6.274-14.329-9.736-23.009-9.736s-16.855,3.462-23.021,9.748
	c-1.563,1.594-2.937,3.309-4.121,5.114c-0.122,0.199-0.248,0.396-0.377,0.588c-8.188,13.066-6.689,30.668,4.498,42.075
	c0.488,0.497,53.625,54.677,53.625,54.677c1.677,1.71,3.597,1.965,4.592,1.965s2.915-0.255,4.592-1.965
	c0,0,53.136-54.18,53.628-54.681C314.404,276.117,315.902,258.515,307.712,245.447z M140,405c0-30.327-24.673-55-55-55
	s-55,24.673-55,55s24.673,55,55,55S140,435.327,140,405z M405,320c13.82,0,26.876,3.313,38.423,9.19
	c13.834-12.028,19.771-31.48,14.89-50.171l-5.459-17.289c-10.857-34.384-31.202-64.291-58.222-86.079
	c-8.873,28.682-28.29,53.201-54.802,68.404c2.654,8.394,3.555,17.241,2.703,25.944H385c8.284,0,15,6.716,15,15s-6.716,15-15,15h-50
	c-1.071,0-2.115-0.112-3.123-0.325c-2.11,3.118-4.524,6.084-7.243,8.856c-0.496,0.505-53.624,54.677-53.624,54.677
	c-6.932,7.067-16.169,10.959-26.011,10.959s-19.079-3.892-26.01-10.959c0,0-53.128-54.172-53.62-54.673
	c-2.72-2.772-5.136-5.742-7.246-8.86C157.116,299.888,156.071,300,155,300h-50c-8.284,0-15-6.716-15-15s6.716-15,15-15h42.468
	c-0.853-8.703,0.048-17.551,2.702-25.944c-26.512-15.203-45.929-39.723-54.802-68.404c-27.02,21.788-47.364,51.695-58.222,86.079
	l-5.459,17.288c-4.88,18.69,1.056,38.144,14.89,50.172C58.124,323.313,71.18,320,85,320c46.869,0,85,38.131,85,85
	c0,13.643-3.23,26.544-8.967,37.98C187.538,454.283,215.708,460,245,460s57.462-5.717,83.967-17.02
	C323.23,431.544,320,418.643,320,405C320,358.131,358.131,320,405,320z M460,405c0-30.327-24.673-55-55-55s-55,24.673-55,55
	s24.673,55,55,55S460,435.327,460,405z M215,120c8.284,0,15-6.716,15-15v-2c0-8.284-6.716-15-15-15s-15,6.716-15,15v2
	C200,113.284,206.716,120,215,120z"/>
<g>
</g>
<g>
</g>
<g>
</g>
<g>
</g>
<g>
</g>
<g>
</g>
<g>
</g>
<g>
</g>
<g>
</g>
<g>
</g>
<g>
</g>
<g>
</g>
<g>
</g>
<g>
</g>
<g>
</g>
</svg>
