<svg id="Layer_1" enable-background="new 0 0 511.764 511.764" height="52" viewBox="0 0 511.764 511.764" width="52" xmlns="http://www.w3.org/2000/svg" xmlns:xlink="http://www.w3.org/1999/xlink"><linearGradient id="SVGID_1_" gradientUnits="userSpaceOnUse" x1="255.882" x2="255.882" y1=".155" y2="511.609"><stop offset="0" stop-color="#8df49b"/><stop offset="1" stop-color="#589cf9"/></linearGradient><path d="m511.764 121.01-36.004 17.429c-20.986-43.353-54.014-79.272-95.513-103.877l20.399-34.407c48.276 28.622 86.699 70.413 111.118 120.855zm-380.247-86.448-20.4-34.407c-48.275 28.622-86.699 70.413-111.117 120.855l36.004 17.429c20.986-43.352 54.014-79.272 95.513-103.877zm234.824 37.247c-32.929-21.065-71.083-32.2-110.339-32.2h-.24c-39.256 0-77.411 11.135-110.339 32.2-32.036 20.495-57.715 49.386-74.26 83.55l36.001 17.435c27.414-56.608 85.742-93.185 148.599-93.185h.24c62.856 0 121.185 36.577 148.599 93.185l36.001-17.435c-16.547-34.164-42.226-63.055-74.262-83.55zm-90.339 399.8h106v40h-250v-40h104v-51.607c-59.451-9.602-105-61.274-105-123.393v-52c0-68.925 56.075-125 125-125s125 56.075 125 125v52c0 62.119-45.549 113.791-105 123.393zm-20-90c35.172 0 65.422-21.474 78.331-52h-58.331v-40h65v-39h-65v-40h57.881c-13.143-29.989-43.098-51-77.881-51s-64.738 21.011-77.881 51h57.881v40h-65v39h65v40h-58.331c12.909 30.525 43.159 52 78.331 52z" fill="url(#SVGID_1_)"/></svg>